<svg width="19" height="20" viewBox="0 0 19 20" fill="none" xmlns="http://www.w3.org/2000/svg">
<path fill-rule="evenodd" clip-rule="evenodd" d="M13.3353 1.43595L13.3359 0.000421399L12.3359 0L12.3353 1.39911H6H5.99945L6 0.000655367L5 0.000202161L4.99941 1.48217C2.16199 1.95849 0 4.42632 0 7.39911V14.0001C0 17.3138 2.68629 20.0001 6 20.0001H12.6667C15.9804 20.0001 18.6667 17.3138 18.6667 14.0001V7.39911C18.6667 4.31143 16.3343 1.76849 13.3353 1.43595ZM12.3349 2.39911L12.3344 3.70619L13.3344 3.70661L13.3349 2.44338C14.9417 2.65798 16.3071 3.63572 17.0546 5.00014H1.61203C2.30739 3.73094 3.53739 2.79633 4.99901 2.49933L4.99854 3.70639L5.99854 3.70685L5.99905 2.39911H6H12.3349ZM1.19835 6.00014C1.06923 6.44408 1 6.91351 1 7.39911V14.0001C1 16.7616 3.23857 19.0001 6 19.0001H12.6667C15.4281 19.0001 17.6667 16.7616 17.6667 14.0001V7.39911C17.6667 6.91351 17.5974 6.44408 17.4683 6.00014H1.19835Z" fill="#F4F4F4"/>
</svg>
