<svg width="14" height="13" viewBox="0 0 14 13" fill="none" xmlns="http://www.w3.org/2000/svg">
<path fill-rule="evenodd" clip-rule="evenodd" d="M12.8091 12.7831C12.5193 13.0723 12.0495 13.0723 11.7598 12.7831L6.5132 7.54717L1.26663 12.7831C0.976873 13.0723 0.507079 13.0723 0.21732 12.7831C-0.0724399 12.4939 -0.0724399 12.0251 0.21732 11.7359L5.46388 6.49999L0.21732 1.26406C-0.0724399 0.974891 -0.0724399 0.506051 0.21732 0.216879C0.507079 -0.0722931 0.976873 -0.0722928 1.26663 0.216879L6.5132 5.4528L11.7598 0.216886C12.0495 -0.0722856 12.5193 -0.0722858 12.8091 0.216886C13.0988 0.506058 13.0988 0.974898 12.8091 1.26407L7.56251 6.49999L12.8091 11.7359C13.0988 12.0251 13.0988 12.4939 12.8091 12.7831Z" fill="#828282"/>
</svg>
