<svg width="30" height="30" viewBox="0 0 30 30" fill="none" xmlns="http://www.w3.org/2000/svg">
<path d="M15.0031 1.2002C7.39392 1.2002 1.20312 7.39039 1.20312 15.0002C1.20312 22.61 7.39392 28.8002 15.0031 28.8002C22.6129 28.8002 28.8031 22.61 28.8031 15.0002C28.8031 7.39039 22.6129 1.2002 15.0031 1.2002ZM19.2031 9.60019H17.2291C16.0663 9.60019 15.6031 9.87319 15.6031 10.6838V12.6002H19.2031L18.6031 15.6002H15.6031V23.4002H12.0031V15.6002H10.2031V12.6002H12.0031V10.9358C12.0031 8.40079 13.0147 6.60019 15.9517 6.60019C17.5249 6.60019 19.2031 7.20019 19.2031 7.20019V9.60019Z" fill="white"/>
</svg>
