<svg width="30" height="30" viewBox="0 0 30 30" fill="none" xmlns="http://www.w3.org/2000/svg">
<path d="M10.1157 3.28125C6.34738 3.28125 3.28125 6.34919 3.28125 10.1184V19.8834C3.28125 23.6522 6.34919 26.7188 10.1184 26.7188H19.8834C23.6522 26.7188 26.7188 23.6508 26.7188 19.8816V10.1157C26.7188 6.34738 23.6508 3.28125 19.8816 3.28125H10.1157ZM22.0312 7.03125C22.5487 7.03125 22.9688 7.45125 22.9688 7.96875C22.9688 8.48625 22.5487 8.90625 22.0312 8.90625C21.5138 8.90625 21.0938 8.48625 21.0938 7.96875C21.0938 7.45125 21.5138 7.03125 22.0312 7.03125ZM15 8.90625C18.3609 8.90625 21.0938 11.6391 21.0938 15C21.0938 18.3609 18.3605 21.0938 15 21.0938C11.6391 21.0938 8.90625 18.3605 8.90625 15C8.90625 11.6395 11.6391 8.90625 15 8.90625ZM15 10.7812C12.6698 10.7812 10.7812 12.6698 10.7812 15C10.7812 17.3302 12.6698 19.2188 15 19.2188C17.3302 19.2188 19.2188 17.3302 19.2188 15C19.2188 12.6698 17.3302 10.7812 15 10.7812Z" fill="white"/>
</svg>
