<svg width="19" height="20" viewBox="0 0 19 20" fill="none" xmlns="http://www.w3.org/2000/svg">
<path fill-rule="evenodd" clip-rule="evenodd" d="M14.1641 6C14.1641 8.76142 11.9255 11 9.16406 11C6.40264 11 4.16406 8.76142 4.16406 6C4.16406 3.23858 6.40264 1 9.16406 1C11.9255 1 14.1641 3.23858 14.1641 6ZM15.1641 6C15.1641 9.31371 12.4778 12 9.16406 12C5.85035 12 3.16406 9.31371 3.16406 6C3.16406 2.68629 5.85035 0 9.16406 0C12.4778 0 15.1641 2.68629 15.1641 6ZM1 20C1 18.3463 1.87012 16.8154 3.34326 15.6823C4.81694 14.5487 6.87416 13.8333 9.16667 13.8333C11.4592 13.8333 13.5164 14.5487 14.9901 15.6823C16.4632 16.8154 17.3333 18.3463 17.3333 20H18.3333C18.3333 17.9718 17.2634 16.1693 15.5998 14.8896C13.9367 13.6104 11.6606 12.8333 9.16667 12.8333C6.6727 12.8333 4.39659 13.6104 2.73355 14.8896C1.06997 16.1693 0 17.9718 0 20H1Z" fill="#F4F4F4"/>
</svg>
