<svg width="22" height="31" viewBox="0 0 22 31" fill="none" xmlns="http://www.w3.org/2000/svg">
<path fill-rule="evenodd" clip-rule="evenodd" d="M3.63281 14.4197C3.63281 18.2285 6.72043 21.3161 10.5292 21.3161C14.338 21.3161 17.4256 18.2285 17.4256 14.4197V6.89638C17.4256 3.08762 14.338 0 10.5292 0C6.72043 0 3.63281 3.08762 3.63281 6.89638V14.4197ZM1 13.7928V14.4197C1 19.6836 5.26722 23.9508 10.5311 23.9508C15.795 23.9508 20.0622 19.6836 20.0622 14.4197V13.7928H21.0622V14.4197C21.0622 20.2359 16.3473 24.9508 10.5311 24.9508C4.71494 24.9508 0 20.2359 0 14.4197V13.7928H1ZM11.1601 25.0778H9.90625V30.0934H11.1601V25.0778Z" fill="#7C0566"/>
</svg>
