<svg width="21" height="21" viewBox="0 0 21 21" fill="none" xmlns="http://www.w3.org/2000/svg">
<path fill-rule="evenodd" clip-rule="evenodd" d="M9.09575 17.1915C4.62459 17.1915 1 13.5669 1 9.09573C1 4.62458 4.62459 1 9.09575 1C13.5669 1 17.1915 4.62458 17.1915 9.09573C17.1915 11.3606 16.2627 13.4068 14.7627 14.8773C13.3014 16.3098 11.3026 17.1915 9.09575 17.1915ZM15.8699 15.1657C17.3135 13.5558 18.1915 11.4283 18.1915 9.09573C18.1915 4.0723 14.1192 0 9.09575 0C4.07231 0 0 4.0723 0 9.09573C0 14.1192 4.07231 18.1915 9.09575 18.1915C11.4268 18.1915 13.5531 17.3146 15.1626 15.8727L19.3099 20.02C19.5052 20.2152 19.8218 20.2152 20.0171 20.02C20.2123 19.8247 20.2123 19.5081 20.0171 19.3129L15.8699 15.1657Z" fill="#828282"/>
</svg>
