<svg width="30" height="30" viewBox="0 0 30 30" fill="none" xmlns="http://www.w3.org/2000/svg">
<path d="M15.0031 1.2002C7.39332 1.2002 1.20312 7.3904 1.20312 15.0002C1.20312 22.61 7.39332 28.8002 15.0031 28.8002C22.6129 28.8002 28.8031 22.61 28.8031 15.0002C28.8031 7.3904 22.6129 1.2002 15.0031 1.2002ZM21.7453 12.3146C21.7513 12.4562 21.7549 12.6002 21.7549 12.7448C21.7549 17.1356 18.4111 22.2002 12.2977 22.2002C10.4209 22.2002 8.67312 21.65 7.20312 20.7068C7.46292 20.738 7.72632 20.753 7.99572 20.753C9.55332 20.753 10.9867 20.2226 12.1231 19.331C10.6687 19.3046 9.44232 18.3416 9.01812 17.0228C9.22152 17.0618 9.42972 17.0828 9.64452 17.0828C9.94753 17.0828 10.2415 17.0426 10.5193 16.9658C9.00012 16.6592 7.85472 15.3176 7.85472 13.7066C7.85472 13.6922 7.85472 13.6784 7.85472 13.6646C8.30292 13.9136 8.81472 14.0636 9.36012 14.081C8.46732 13.484 7.88172 12.4676 7.88172 11.3144C7.88172 10.7054 8.04492 10.1348 8.33112 9.64279C9.97092 11.6534 12.4201 12.9764 15.1819 13.1156C15.1249 12.872 15.0949 12.6188 15.0949 12.3584C15.0949 10.523 16.5829 9.03499 18.4189 9.03499C19.3747 9.03499 20.2381 9.43819 20.8441 10.0844C21.6007 9.93559 22.3129 9.65899 22.9549 9.27859C22.7071 10.0538 22.1797 10.7054 21.4927 11.117C22.1659 11.0354 22.8055 10.8578 23.4025 10.5932C22.9573 11.2598 22.3939 11.846 21.7453 12.3146Z" fill="white"/>
</svg>
