<svg width="163" height="48" viewBox="0 0 163 48" fill="none" xmlns="http://www.w3.org/2000/svg">
<path d="M6.863 20.1722C4.93572 20.1722 3.35315 19.7171 2.11531 18.807C0.877461 17.8811 0.211531 16.563 0.117517 14.8526H5.02973C5.07674 15.4332 5.2491 15.8569 5.54681 16.1236C5.84452 16.3904 6.22841 16.5238 6.69848 16.5238C7.12154 16.5238 7.46625 16.4218 7.73263 16.2178C8.01467 15.9981 8.15569 15.6999 8.15569 15.3233C8.15569 14.8369 7.92849 14.4603 7.47409 14.1935C7.01969 13.9267 6.28325 13.6286 5.26477 13.299C4.18361 12.9381 3.30615 12.5929 2.63238 12.2634C1.97429 11.9181 1.39454 11.4238 0.89313 10.7805C0.407393 10.1214 0.164524 9.26618 0.164524 8.21481C0.164524 7.14775 0.430896 6.23761 0.96364 5.48438C1.49638 4.71547 2.23282 4.13487 3.17296 3.74256C4.1131 3.35026 5.17859 3.15411 6.36943 3.15411C8.29671 3.15411 9.83226 3.60918 10.9761 4.51932C12.1356 5.41377 12.7545 6.67698 12.8329 8.30896H7.82664C7.81097 7.80681 7.65428 7.4302 7.35657 7.17913C7.07453 6.92806 6.70631 6.80252 6.25191 6.80252C5.90719 6.80252 5.62515 6.90452 5.40579 7.10852C5.18642 7.31251 5.07674 7.60282 5.07674 7.97943C5.07674 8.29327 5.19426 8.56788 5.42929 8.80326C5.67999 9.02295 5.98554 9.2191 6.34592 9.39172C6.70631 9.54864 7.23905 9.75263 7.94416 10.0037C8.99398 10.3646 9.85577 10.7255 10.5295 11.0865C11.219 11.4317 11.8066 11.926 12.2923 12.5694C12.7937 13.197 13.0444 13.9973 13.0444 14.9703C13.0444 15.9589 12.7937 16.8455 12.2923 17.6301C11.8066 18.4147 11.0936 19.0345 10.1535 19.4896C9.22901 19.9446 8.13218 20.1722 6.863 20.1722Z" fill="#F4F4F4"/>
<path d="M22.9656 16.0765V20.0074H20.9678C17.599 20.0074 15.9146 18.3362 15.9146 14.9938V10.6392H14.2928V6.80252H15.9146V3.60133H20.5447V6.80252H22.9421V10.6392H20.5447V15.0644C20.5447 15.4253 20.6231 15.6842 20.7798 15.8412C20.9521 15.9981 21.2342 16.0765 21.6259 16.0765H22.9656Z" fill="#F4F4F4"/>
<path d="M24.3264 13.3932C24.3264 12.028 24.5693 10.8354 25.055 9.8154C25.5564 8.79542 26.2302 8.01081 27.0763 7.46159C27.9381 6.91237 28.8939 6.63775 29.9437 6.63775C30.8525 6.63775 31.636 6.81821 32.2941 7.17913C32.9522 7.54005 33.4614 8.0265 33.8218 8.6385V6.80252H38.4285V20.0074H33.8218V18.1714C33.4614 18.7834 32.9443 19.2699 32.2706 19.6308C31.6125 19.9917 30.8369 20.1722 29.9437 20.1722C28.8939 20.1722 27.9381 19.8976 27.0763 19.3483C26.2302 18.7991 25.5564 18.0145 25.055 16.9945C24.5693 15.9589 24.3264 14.7584 24.3264 13.3932ZM33.8218 13.3932C33.8218 12.5458 33.5868 11.8789 33.1167 11.3925C32.6623 10.906 32.0982 10.6628 31.4244 10.6628C30.735 10.6628 30.1631 10.906 29.7087 11.3925C29.2543 11.8632 29.0271 12.5301 29.0271 13.3932C29.0271 14.2406 29.2543 14.9153 29.7087 15.4175C30.1631 15.9039 30.735 16.1472 31.4244 16.1472C32.0982 16.1472 32.6623 15.9039 33.1167 15.4175C33.5868 14.931 33.8218 14.2563 33.8218 13.3932Z" fill="#F4F4F4"/>
<path d="M45.6602 9.1328C46.1772 8.37958 46.804 7.78328 47.5404 7.3439C48.2769 6.90452 49.0682 6.68483 49.9143 6.68483V11.6043H48.6216C47.6188 11.6043 46.8745 11.8005 46.3888 12.1928C45.903 12.5851 45.6602 13.2677 45.6602 14.2406V20.0074H41.0535V6.80252H45.6602V9.1328Z" fill="#F4F4F4"/>
<path d="M92.439 8.94449C92.439 9.94879 92.2039 10.8668 91.7338 11.6985C91.2794 12.5144 90.5822 13.1735 89.642 13.6757C88.7176 14.1621 87.5816 14.4053 86.234 14.4053H83.9542V20.0074H79.3475V3.41303H86.234C87.5659 3.41303 88.6941 3.64841 89.6185 4.11917C90.5587 4.58994 91.2638 5.24116 91.7338 6.07284C92.2039 6.90452 92.439 7.86174 92.439 8.94449ZM85.7875 10.7334C87.088 10.7334 87.7383 10.1371 87.7383 8.94449C87.7383 7.7362 87.088 7.13205 85.7875 7.13205H83.9542V10.7334H85.7875Z" fill="#F4F4F4"/>
<path d="M100.424 20.1722C99.1079 20.1722 97.9249 19.8976 96.875 19.3483C95.8409 18.7991 95.0261 18.0145 94.4307 16.9945C93.8353 15.9745 93.5376 14.7741 93.5376 13.3932C93.5376 12.028 93.8353 10.8354 94.4307 9.8154C95.0418 8.79542 95.8644 8.01081 96.8985 7.46159C97.9484 6.91237 99.1314 6.63775 100.448 6.63775C101.764 6.63775 102.939 6.91237 103.973 7.46159C105.023 8.01081 105.846 8.79542 106.441 9.8154C107.052 10.8354 107.358 12.028 107.358 13.3932C107.358 14.7584 107.052 15.9589 106.441 16.9945C105.846 18.0145 105.023 18.7991 103.973 19.3483C102.923 19.8976 101.74 20.1722 100.424 20.1722ZM100.424 16.1707C101.066 16.1707 101.599 15.9353 102.022 15.4646C102.461 14.9781 102.68 14.2876 102.68 13.3932C102.68 12.4987 102.461 11.8161 102.022 11.3454C101.599 10.8746 101.074 10.6392 100.448 10.6392C99.8208 10.6392 99.2959 10.8746 98.8728 11.3454C98.4498 11.8161 98.2382 12.4987 98.2382 13.3932C98.2382 14.3033 98.4419 14.9938 98.8493 15.4646C99.2567 15.9353 99.7816 16.1707 100.424 16.1707Z" fill="#F4F4F4"/>
<path d="M108.48 13.3932C108.48 12.028 108.762 10.8354 109.326 9.8154C109.89 8.79542 110.673 8.01081 111.676 7.46159C112.695 6.91237 113.854 6.63775 115.155 6.63775C116.831 6.63775 118.241 7.10067 119.385 8.0265C120.529 8.93665 121.266 10.2156 121.595 11.8632H116.706C116.424 11.0002 115.875 10.5686 115.061 10.5686C114.481 10.5686 114.019 10.8119 113.674 11.2983C113.345 11.7691 113.18 12.4674 113.18 13.3932C113.18 14.319 113.345 15.0252 113.674 15.5116C114.019 15.9981 114.481 16.2413 115.061 16.2413C115.891 16.2413 116.439 15.8098 116.706 14.9467H121.595C121.266 16.5787 120.529 17.8576 119.385 18.7834C118.241 19.7093 116.831 20.1722 115.155 20.1722C113.854 20.1722 112.695 19.8976 111.676 19.3483C110.673 18.7991 109.89 18.0145 109.326 16.9945C108.762 15.9745 108.48 14.7741 108.48 13.3932Z" fill="#F4F4F4"/>
<path d="M131.758 20.0074L128.115 14.5936V20.0074H123.508V2.58919H128.115V11.9809L131.758 6.80252H137.281L132.087 13.4403L137.375 20.0074H131.758Z" fill="#F4F4F4"/>
<path d="M151.324 13.252C151.324 13.6129 151.3 13.9738 151.253 14.3347H142.533C142.58 15.0566 142.776 15.5979 143.121 15.9589C143.481 16.3041 143.936 16.4767 144.484 16.4767C145.252 16.4767 145.8 16.1315 146.129 15.441H151.042C150.838 16.3512 150.438 17.1671 149.843 17.889C149.263 18.5951 148.527 19.1522 147.634 19.5602C146.74 19.9682 145.753 20.1722 144.672 20.1722C143.372 20.1722 142.212 19.8976 141.194 19.3483C140.191 18.7991 139.4 18.0145 138.82 16.9945C138.256 15.9745 137.974 14.7741 137.974 13.3932C137.974 12.0123 138.256 10.8197 138.82 9.8154C139.384 8.79542 140.167 8.01081 141.17 7.46159C142.189 6.91237 143.356 6.63775 144.672 6.63775C145.973 6.63775 147.124 6.90452 148.127 7.43805C149.13 7.97158 149.913 8.74049 150.478 9.74479C151.042 10.7334 151.324 11.9025 151.324 13.252ZM146.623 12.0986C146.623 11.5337 146.435 11.0943 146.059 10.7805C145.683 10.4509 145.213 10.2862 144.649 10.2862C144.085 10.2862 143.622 10.4431 143.262 10.7569C142.902 11.0551 142.667 11.5023 142.557 12.0986H146.623Z" fill="#F4F4F4"/>
<path d="M160.989 16.0765V20.0074H158.991C155.622 20.0074 153.937 18.3362 153.937 14.9938V10.6392H152.316V6.80252H153.937V3.60133H158.568V6.80252H160.965V10.6392H158.568V15.0644C158.568 15.4253 158.646 15.6842 158.803 15.8412C158.975 15.9981 159.257 16.0765 159.649 16.0765H160.989Z" fill="#F4F4F4"/>
<path d="M64.5169 0L67.0234 7.72562H75.1346L68.5725 12.5003L71.079 20.2259L64.5169 15.4512L57.9548 20.2259L60.4613 12.5003L53.8992 7.72562H62.0104L64.5169 0Z" fill="#F4F4F4"/>
<path d="M7.72675 39.1174C7.72675 39.4705 7.71696 39.7402 7.69737 39.9266H1.04296C1.07234 40.5346 1.21924 41.0544 1.48365 41.486C1.74807 41.9175 2.09572 42.2461 2.52662 42.4716C2.95751 42.6874 3.42758 42.7953 3.93682 42.7953C4.60275 42.7953 5.16096 42.6335 5.61144 42.3098C6.07172 41.9862 6.3753 41.5497 6.5222 41.0005H7.60923C7.41337 41.7851 6.99227 42.4275 6.34592 42.9277C5.70937 43.4181 4.90634 43.6632 3.93682 43.6632C3.18275 43.6632 2.50703 43.4965 1.90965 43.1631C1.31227 42.8198 0.842206 42.3392 0.499448 41.7213C0.166483 41.0937 0 40.363 0 39.5294C0 38.6957 0.166483 37.9651 0.499448 37.3374C0.832413 36.7097 1.29758 36.2291 1.89496 35.8957C2.49234 35.5622 3.17296 35.3955 3.93682 35.3955C4.70068 35.3955 5.36661 35.5622 5.93461 35.8957C6.51241 36.2291 6.9531 36.6803 7.25668 37.2491C7.57006 37.8081 7.72675 38.4309 7.72675 39.1174ZM6.68379 39.088C6.69358 38.4898 6.57116 37.9798 6.31654 37.558C6.07172 37.1363 5.73386 36.8176 5.30296 36.6018C4.87206 36.386 4.40199 36.2782 3.89275 36.2782C3.12889 36.2782 2.47765 36.5233 1.93903 37.0137C1.40041 37.5041 1.10172 38.1955 1.04296 39.088H6.68379Z" fill="white"/>
<path d="M13.3686 35.3661C14.3283 35.3661 15.1118 35.6652 15.7189 36.2634C16.3261 36.8519 16.6297 37.7101 16.6297 38.8379V43.5456H15.6161V38.9556C15.6161 38.0827 15.3958 37.4158 14.9551 36.9549C14.5242 36.4939 13.9317 36.2634 13.1776 36.2634C12.404 36.2634 11.787 36.5086 11.3267 36.999C10.8665 37.4894 10.6363 38.2102 10.6363 39.1616V43.5456H9.60806V35.5132H10.6363V36.8813C10.891 36.3909 11.2582 36.0183 11.7381 35.7633C12.2179 35.4985 12.7614 35.3661 13.3686 35.3661Z" fill="white"/>
<path d="M20.2406 36.3811V41.3683C20.2406 41.8587 20.3336 42.197 20.5197 42.3834C20.7058 42.5697 21.0338 42.6629 21.5039 42.6629H22.444V43.5456H21.3423C20.6176 43.5456 20.079 43.3788 19.7265 43.0454C19.3739 42.7021 19.1976 42.1431 19.1976 41.3683V36.3811H18.0812V35.5132H19.1976V33.4977H20.2406V35.5132H22.444V36.3811H20.2406Z" fill="white"/>
<path d="M31.3966 39.1174C31.3966 39.4705 31.3868 39.7402 31.3672 39.9266H24.7128C24.7422 40.5346 24.8891 41.0544 25.1535 41.486C25.4179 41.9175 25.7655 42.2461 26.1964 42.4716C26.6273 42.6874 27.0974 42.7953 27.6066 42.7953C28.2726 42.7953 28.8308 42.6335 29.2813 42.3098C29.7415 41.9862 30.0451 41.5497 30.192 41.0005H31.2791C31.0832 41.7851 30.6621 42.4275 30.0157 42.9277C29.3792 43.4181 28.5762 43.6632 27.6066 43.6632C26.8526 43.6632 26.1769 43.4965 25.5795 43.1631C24.9821 42.8198 24.512 42.3392 24.1693 41.7213C23.8363 41.0937 23.6698 40.363 23.6698 39.5294C23.6698 38.6957 23.8363 37.9651 24.1693 37.3374C24.5022 36.7097 24.9674 36.2291 25.5648 35.8957C26.1622 35.5622 26.8428 35.3955 27.6066 35.3955C28.3705 35.3955 29.0364 35.5622 29.6044 35.8957C30.1822 36.2291 30.6229 36.6803 30.9265 37.2491C31.2399 37.8081 31.3966 38.4309 31.3966 39.1174ZM30.3536 39.088C30.3634 38.4898 30.241 37.9798 29.9864 37.558C29.7415 37.1363 29.4037 36.8176 28.9728 36.6018C28.5419 36.386 28.0718 36.2782 27.5626 36.2782C26.7987 36.2782 26.1475 36.5233 25.6089 37.0137C25.0702 37.5041 24.7715 38.1955 24.7128 39.088H30.3536Z" fill="white"/>
<path d="M34.3062 36.9402C34.5314 36.44 34.8742 36.0526 35.3344 35.778C35.8045 35.5034 36.3774 35.3661 37.0531 35.3661V36.44H36.774C36.0297 36.44 35.4324 36.641 34.9819 37.0431C34.5314 37.4453 34.3062 38.1171 34.3062 39.0586V43.5456H33.2779V35.5132H34.3062V36.9402Z" fill="white"/>
<path d="M39.9368 36.3811V41.3683C39.9368 41.8587 40.0298 42.197 40.2159 42.3834C40.4019 42.5697 40.73 42.6629 41.2001 42.6629H42.1402V43.5456H41.0385C40.3138 43.5456 39.7752 43.3788 39.4226 43.0454C39.0701 42.7021 38.8938 42.1431 38.8938 41.3683V36.3811H37.7774V35.5132H38.8938V33.4977H39.9368V35.5132H42.1402V36.3811H39.9368Z" fill="white"/>
<path d="M43.366 39.5146C43.366 38.6908 43.5276 37.97 43.8507 37.3521C44.1837 36.7244 44.6391 36.2438 45.2169 35.9104C45.8045 35.5671 46.4655 35.3955 47.2 35.3955C47.9638 35.3955 48.62 35.572 49.1684 35.9251C49.7266 36.2782 50.1281 36.7293 50.373 37.2785V35.5132H51.4012V43.5456H50.373V41.7655C50.1183 42.3147 49.7119 42.7708 49.1537 43.1336C48.6053 43.4867 47.9492 43.6632 47.1853 43.6632C46.4606 43.6632 45.8045 43.4916 45.2169 43.1483C44.6391 42.8051 44.1837 42.3196 43.8507 41.6919C43.5276 41.0642 43.366 40.3385 43.366 39.5146ZM50.373 39.5294C50.373 38.8821 50.2407 38.3132 49.9763 37.8228C49.7119 37.3325 49.3496 36.9549 48.8893 36.6901C48.4388 36.4253 47.9394 36.2929 47.3909 36.2929C46.8229 36.2929 46.3137 36.4204 45.8632 36.6754C45.4127 36.9304 45.0553 37.303 44.7909 37.7934C44.5363 38.274 44.409 38.8477 44.409 39.5146C44.409 40.1718 44.5363 40.7504 44.7909 41.2506C45.0553 41.741 45.4127 42.1186 45.8632 42.3834C46.3137 42.6384 46.8229 42.7659 47.3909 42.7659C47.9394 42.7659 48.4388 42.6334 48.8893 42.3686C49.3496 42.1038 49.7119 41.7262 49.9763 41.2359C50.2407 40.7455 50.373 40.1767 50.373 39.5294Z" fill="white"/>
<path d="M54.2628 33.9979C54.0572 33.9979 53.8809 33.9243 53.734 33.7772C53.5871 33.6301 53.5137 33.4487 53.5137 33.2329C53.5137 33.0171 53.5871 32.8406 53.734 32.7033C53.8809 32.5562 54.0572 32.4826 54.2628 32.4826C54.4685 32.4826 54.6448 32.5562 54.7917 32.7033C54.9386 32.8406 55.012 33.0171 55.012 33.2329C55.012 33.4487 54.9386 33.6301 54.7917 33.7772C54.6448 33.9243 54.4685 33.9979 54.2628 33.9979ZM54.777 35.5132V43.5456H53.7487V35.5132H54.777Z" fill="white"/>
<path d="M60.8661 35.3661C61.8258 35.3661 62.6092 35.6652 63.2164 36.2634C63.8236 36.8519 64.1272 37.7101 64.1272 38.8379V43.5456H63.1136V38.9556C63.1136 38.0827 62.8932 37.4158 62.4525 36.9549C62.0216 36.4939 61.4292 36.2634 60.6751 36.2634C59.9014 36.2634 59.2845 36.5086 58.8242 36.999C58.3639 37.4894 58.1338 38.2102 58.1338 39.1616V43.5456H57.1055V35.5132H58.1338V36.8813C58.3884 36.3909 58.7556 36.0183 59.2355 35.7633C59.7154 35.4985 60.2589 35.3661 60.8661 35.3661Z" fill="white"/>
<path d="M75.9496 35.3661C76.8897 35.3661 77.6536 35.6652 78.2411 36.2634C78.8385 36.8519 79.1372 37.7101 79.1372 38.8379V43.5456H78.1236V38.9556C78.1236 38.0827 77.9131 37.4158 77.492 36.9549C77.0709 36.4939 76.498 36.2634 75.7733 36.2634C75.0192 36.2634 74.4169 36.5135 73.9665 37.0137C73.516 37.5139 73.2907 38.2397 73.2907 39.191V43.5456H72.2772V38.9556C72.2772 38.0827 72.0666 37.4158 71.6455 36.9549C71.2244 36.4939 70.6466 36.2634 69.9121 36.2634C69.1581 36.2634 68.5558 36.5135 68.1053 37.0137C67.6548 37.5139 67.4296 38.2397 67.4296 39.191V43.5456H66.4013V35.5132H67.4296V36.896C67.6842 36.3958 68.0465 36.0183 68.5166 35.7633C68.9867 35.4985 69.5106 35.3661 70.0884 35.3661C70.7837 35.3661 71.3909 35.5328 71.9099 35.8662C72.4387 36.1997 72.8207 36.6901 73.0557 37.3374C73.2711 36.6999 73.6384 36.2144 74.1574 35.8809C74.6862 35.5377 75.2836 35.3661 75.9496 35.3661Z" fill="white"/>
<path d="M88.6776 39.1174C88.6776 39.4705 88.6678 39.7402 88.6482 39.9266H81.9938C82.0231 40.5346 82.17 41.0544 82.4345 41.486C82.6989 41.9175 83.0465 42.2461 83.4774 42.4716C83.9083 42.6874 84.3784 42.7953 84.8876 42.7953C85.5536 42.7953 86.1118 42.6335 86.5622 42.3098C87.0225 41.9862 87.3261 41.5497 87.473 41.0005H88.56C88.3642 41.7851 87.9431 42.4275 87.2967 42.9277C86.6602 43.4181 85.8571 43.6632 84.8876 43.6632C84.1336 43.6632 83.4578 43.4965 82.8605 43.1631C82.2631 42.8198 81.793 42.3392 81.4503 41.7213C81.1173 41.0937 80.9508 40.363 80.9508 39.5294C80.9508 38.6957 81.1173 37.9651 81.4503 37.3374C81.7832 36.7097 82.2484 36.2291 82.8458 35.8957C83.4432 35.5622 84.1238 35.3955 84.8876 35.3955C85.6515 35.3955 86.3174 35.5622 86.8854 35.8957C87.4632 36.2291 87.9039 36.6803 88.2075 37.2491C88.5209 37.8081 88.6776 38.4309 88.6776 39.1174ZM87.6346 39.088C87.6444 38.4898 87.522 37.9798 87.2673 37.558C87.0225 37.1363 86.6847 36.8176 86.2538 36.6018C85.8229 36.386 85.3528 36.2782 84.8436 36.2782C84.0797 36.2782 83.4285 36.5233 82.8898 37.0137C82.3512 37.5041 82.0525 38.1955 81.9938 39.088H87.6346Z" fill="white"/>
<path d="M94.3194 35.3661C95.2791 35.3661 96.0626 35.6652 96.6697 36.2634C97.2769 36.8519 97.5805 37.7101 97.5805 38.8379V43.5456H96.5669V38.9556C96.5669 38.0827 96.3466 37.4158 95.9059 36.9549C95.475 36.4939 94.8825 36.2634 94.1284 36.2634C93.3548 36.2634 92.7378 36.5086 92.2775 36.999C91.8173 37.4894 91.5871 38.2102 91.5871 39.1616V43.5456H90.5589V35.5132H91.5871V36.8813C91.8418 36.3909 92.209 36.0183 92.6889 35.7633C93.1687 35.4985 93.7122 35.3661 94.3194 35.3661Z" fill="white"/>
<path d="M101.191 36.3811V41.3683C101.191 41.8587 101.284 42.197 101.471 42.3834C101.657 42.5697 101.985 42.6629 102.455 42.6629H103.395V43.5456H102.293C101.568 43.5456 101.03 43.3788 100.677 43.0454C100.325 42.7021 100.148 42.1431 100.148 41.3683V36.3811H99.032V35.5132H100.148V33.4977H101.191V35.5132H103.395V36.3811H101.191Z" fill="white"/>
<path d="M108.652 39.5146C108.652 38.6908 108.813 37.97 109.136 37.3521C109.469 36.7244 109.925 36.2438 110.503 35.9104C111.09 35.5671 111.751 35.3955 112.486 35.3955C113.25 35.3955 113.906 35.572 114.454 35.9251C115.012 36.2782 115.414 36.7293 115.659 37.2785V35.5132H116.687V43.5456H115.659V41.7655C115.404 42.3147 114.998 42.7708 114.439 43.1336C113.891 43.4867 113.235 43.6632 112.471 43.6632C111.746 43.6632 111.09 43.4916 110.503 43.1483C109.925 42.8051 109.469 42.3196 109.136 41.6919C108.813 41.0642 108.652 40.3385 108.652 39.5146ZM115.659 39.5294C115.659 38.8821 115.526 38.3132 115.262 37.8228C114.998 37.3325 114.635 36.9549 114.175 36.6901C113.724 36.4253 113.225 36.2929 112.677 36.2929C112.109 36.2929 111.599 36.4204 111.149 36.6754C110.698 36.9304 110.341 37.303 110.077 37.7934C109.822 38.274 109.695 38.8477 109.695 39.5146C109.695 40.1718 109.822 40.7504 110.077 41.2506C110.341 41.741 110.698 42.1186 111.149 42.3834C111.599 42.6384 112.109 42.7659 112.677 42.7659C113.225 42.7659 113.724 42.6334 114.175 42.3686C114.635 42.1038 114.998 41.7262 115.262 41.2359C115.526 40.7455 115.659 40.1767 115.659 39.5294Z" fill="white"/>
<path d="M122.398 35.3955C123.152 35.3955 123.809 35.572 124.367 35.9251C124.925 36.2782 125.326 36.7244 125.571 37.2638V35.5132H126.6V43.7515C126.6 44.4871 126.438 45.1393 126.115 45.7081C125.801 46.277 125.361 46.7134 124.793 47.0174C124.225 47.3313 123.578 47.4882 122.854 47.4882C121.825 47.4882 120.969 47.243 120.283 46.7526C119.607 46.2622 119.186 45.5953 119.02 44.7519H120.033C120.21 45.3109 120.543 45.7572 121.032 46.0906C121.532 46.4241 122.139 46.5908 122.854 46.5908C123.373 46.5908 123.838 46.478 124.249 46.2524C124.661 46.0367 124.984 45.713 125.219 45.2815C125.454 44.85 125.571 44.34 125.571 43.7515V41.7655C125.317 42.3147 124.91 42.7708 124.352 43.1336C123.804 43.4867 123.152 43.6632 122.398 43.6632C121.664 43.6632 121.003 43.4916 120.415 43.1483C119.837 42.8051 119.382 42.3196 119.049 41.6919C118.726 41.0642 118.564 40.3385 118.564 39.5146C118.564 38.6908 118.726 37.97 119.049 37.3521C119.382 36.7244 119.837 36.2438 120.415 35.9104C121.003 35.5671 121.664 35.3955 122.398 35.3955ZM125.571 39.5294C125.571 38.8821 125.439 38.3132 125.175 37.8228C124.91 37.3325 124.548 36.9549 124.088 36.6901C123.637 36.4253 123.138 36.2929 122.589 36.2929C122.021 36.2929 121.512 36.4204 121.062 36.6754C120.611 36.9304 120.254 37.303 119.989 37.7934C119.735 38.274 119.607 38.8477 119.607 39.5146C119.607 40.1718 119.735 40.7504 119.989 41.2506C120.254 41.741 120.611 42.1186 121.062 42.3834C121.512 42.6384 122.021 42.7659 122.589 42.7659C123.138 42.7659 123.637 42.6334 124.088 42.3686C124.548 42.1038 124.91 41.7262 125.175 41.2359C125.439 40.7455 125.571 40.1767 125.571 39.5294Z" fill="white"/>
<path d="M136.204 39.1174C136.204 39.4705 136.194 39.7402 136.174 39.9266H129.52C129.549 40.5346 129.696 41.0544 129.961 41.486C130.225 41.9175 130.573 42.2461 131.004 42.4716C131.434 42.6874 131.905 42.7953 132.414 42.7953C133.08 42.7953 133.638 42.6335 134.088 42.3098C134.549 41.9862 134.852 41.5497 134.999 41.0005H136.086C135.89 41.7851 135.469 42.4275 134.823 42.9277C134.186 43.4181 133.383 43.6632 132.414 43.6632C131.66 43.6632 130.984 43.4965 130.387 43.1631C129.789 42.8198 129.319 42.3392 128.976 41.7213C128.643 41.0937 128.477 40.363 128.477 39.5294C128.477 38.6957 128.643 37.9651 128.976 37.3374C129.309 36.7097 129.775 36.2291 130.372 35.8957C130.969 35.5622 131.65 35.3955 132.414 35.3955C133.178 35.3955 133.844 35.5622 134.412 35.8957C134.989 36.2291 135.43 36.6803 135.734 37.2491C136.047 37.8081 136.204 38.4309 136.204 39.1174ZM135.161 39.088C135.171 38.4898 135.048 37.9798 134.793 37.558C134.549 37.1363 134.211 36.8176 133.78 36.6018C133.349 36.386 132.879 36.2782 132.37 36.2782C131.606 36.2782 130.955 36.5233 130.416 37.0137C129.877 37.5041 129.579 38.1955 129.52 39.088H135.161Z" fill="white"/>
<path d="M141.846 35.3661C142.805 35.3661 143.589 35.6652 144.196 36.2634C144.803 36.8519 145.107 37.7101 145.107 38.8379V43.5456H144.093V38.9556C144.093 38.0827 143.873 37.4158 143.432 36.9549C143.001 36.4939 142.409 36.2634 141.655 36.2634C140.881 36.2634 140.264 36.5086 139.804 36.999C139.343 37.4894 139.113 38.2102 139.113 39.1616V43.5456H138.085V35.5132H139.113V36.8813C139.368 36.3909 139.735 36.0183 140.215 35.7633C140.695 35.4985 141.238 35.3661 141.846 35.3661Z" fill="white"/>
<path d="M146.911 39.5294C146.911 38.6957 147.077 37.97 147.41 37.3521C147.743 36.7244 148.203 36.2438 148.791 35.9104C149.379 35.5671 150.049 35.3955 150.803 35.3955C151.793 35.3955 152.605 35.6407 153.242 36.131C153.888 36.6214 154.305 37.2883 154.491 38.1318H153.389C153.252 37.5531 152.953 37.102 152.493 36.7783C152.042 36.4449 151.479 36.2782 150.803 36.2782C150.265 36.2782 149.78 36.4007 149.349 36.6459C148.918 36.8911 148.576 37.2589 148.321 37.7493C148.076 38.2299 147.954 38.8232 147.954 39.5294C147.954 40.2355 148.076 40.8338 148.321 41.3241C148.576 41.8145 148.918 42.1823 149.349 42.4275C149.78 42.6727 150.265 42.7953 150.803 42.7953C151.479 42.7953 152.042 42.6335 152.493 42.3098C152.953 41.9763 153.252 41.5154 153.389 40.9269H154.491C154.305 41.7508 153.888 42.4128 153.242 42.913C152.596 43.4132 151.783 43.6632 150.803 43.6632C150.049 43.6632 149.379 43.4965 148.791 43.1631C148.203 42.8198 147.743 42.3392 147.41 41.7213C147.077 41.0937 146.911 40.363 146.911 39.5294Z" fill="white"/>
<path d="M163 35.5132L158.241 47.3264H157.168L158.725 43.5014L155.435 35.5132H156.566L159.298 42.3686L161.942 35.5132H163Z" fill="white"/>
</svg>
