<svg width="20" height="20" viewBox="0 0 20 20" fill="none" xmlns="http://www.w3.org/2000/svg">
<path fill-rule="evenodd" clip-rule="evenodd" d="M6 1H14C16.7614 1 19 3.23858 19 6V14C19 16.7614 16.7614 19 14 19H6C3.23858 19 1 16.7614 1 14V6C1 3.23858 3.23858 1 6 1ZM0 6C0 2.68629 2.68629 0 6 0H14C17.3137 0 20 2.68629 20 6V14C20 17.3137 17.3137 20 14 20H6C2.68629 20 0 17.3137 0 14V6ZM9.99913 5C10.306 5 10.5547 5.24873 10.5547 5.55556V9.44444H14.4444C14.7513 9.44444 15 9.69318 15 10C15 10.3068 14.7513 10.5556 14.4444 10.5556H10.5547V14.4444C10.5547 14.7513 10.306 15 9.99913 15C9.69231 15 9.44358 14.7513 9.44358 14.4444V10.5556H5.55556C5.24873 10.5556 5 10.3068 5 10C5 9.69318 5.24873 9.44444 5.55556 9.44444H9.44358V5.55556C9.44358 5.24873 9.69231 5 9.99913 5Z" fill="#C4C4C4"/>
</svg>
