<svg width="24" height="25" viewBox="0 0 24 25" fill="none" xmlns="http://www.w3.org/2000/svg">
<path fill-rule="evenodd" clip-rule="evenodd" d="M12 24.8262C18.6274 24.8262 24 19.4536 24 12.8262C24 6.19875 18.6274 0.826172 12 0.826172C5.37258 0.826172 0 6.19875 0 12.8262C0 19.4536 5.37258 24.8262 12 24.8262ZM13.8103 16.5692C14.2956 16.3092 14.6596 15.9799 14.9023 15.5812C15.1536 15.1739 15.2793 14.7319 15.2793 14.2552C15.2793 13.6312 15.1233 13.1416 14.8113 12.7862C14.508 12.4222 14.1613 12.1622 13.7713 12.0062C13.3813 11.8502 12.8266 11.6726 12.1073 11.4732V9.45823C12.4973 9.59689 12.7183 9.90023 12.7703 10.3682H15.1493C15.0886 9.55356 14.794 8.91656 14.2653 8.45723C13.7366 7.99789 13.0173 7.73356 12.1073 7.66423V6.61123H11.2753V7.66423C10.3566 7.72489 9.60265 7.99356 9.01331 8.47023C8.43265 8.94689 8.14231 9.57956 8.14231 10.3682C8.14231 11.0009 8.29398 11.4992 8.59731 11.8632C8.90065 12.2272 9.25165 12.4916 9.65031 12.6562C10.0576 12.8209 10.5993 12.9899 11.2753 13.1632V15.2172C10.8246 15.0699 10.5733 14.7362 10.5213 14.2162H8.15531C8.18998 15.0309 8.48898 15.6766 9.05231 16.1532C9.61565 16.6212 10.3566 16.8942 11.2753 16.9722V18.0382H12.1073V16.9852C12.766 16.9592 13.3336 16.8206 13.8103 16.5692ZM10.6903 10.8102C10.5603 10.6629 10.4953 10.4809 10.4953 10.2642C10.4953 10.0129 10.5646 9.81789 10.7033 9.67923C10.842 9.53189 11.0326 9.43656 11.2753 9.39323V11.2002C11.024 11.0876 10.829 10.9576 10.6903 10.8102ZM12.7183 14.9442C12.571 15.1089 12.3673 15.2129 12.1073 15.2562V13.4102C12.3846 13.5142 12.5926 13.6399 12.7313 13.7872C12.8786 13.9259 12.9523 14.1079 12.9523 14.3332C12.9523 14.5759 12.8743 14.7796 12.7183 14.9442Z" fill="#7C0566"/>
</svg>
